<svg width="1080" height="1080" viewBox="0 0 1080 1080" fill="none" xmlns="http://www.w3.org/2000/svg">
<path d="M543.473 659.417C545.088 677.884 546.153 698.949 548.441 701.916C550.795 704.967 556.097 706.488 560.274 707.17C562.043 707.459 563.643 708.11 564.721 708.913C567.13 710.709 563.119 716.157 561.504 722.081C560.36 726.28 559.358 730.153 558.139 735.399C556.644 741.834 557.194 754.834 560.27 762.978C563.712 772.095 576.791 771.865 582.465 772.68C585.487 773.114 587.857 774.56 589.334 775.767C592.373 778.25 592.433 782.89 593.107 789.206C593.533 793.2 599.956 793.931 605.464 797.018C610.3 799.729 615.549 800.388 619.464 801.599C623.569 802.869 627.382 810.832 630.231 816.652C634.346 825.057 640.32 829.445 640.998 829.586C650.269 831.517 622.587 815.207 617.882 811.438C613.823 808.186 609.407 805.255 606.183 802.563C604.961 801.543 604.024 802.002 604.544 803.338C608.564 813.652 619.052 817.87 629.254 824.981C637.667 830.845 642.2 835.353 644.222 838.585C645.927 841.312 649.723 843.956 653.23 846.927C657.461 850.511 661.555 856.596 664.666 860.511C667.668 864.286 670.175 867.105 672.068 869.796C674.007 872.555 678.246 873.029 686.838 873.437C688.749 873.527 689.546 873.836 697.282 873.973C719.665 874.37 735.56 873.844 737.303 873.307C741.493 872.017 745.77 870.349 749.41 869.139C753.472 867.788 756.537 866.314 760.036 864.566C764.57 862.302 768.644 861.471 771.876 859.054C774.873 856.813 777.796 853.949 780.754 851.253C784.425 847.908 787.207 843.731 789.903 839.957C793.255 835.265 795.553 832.156 797.575 828.121C799.616 824.046 800.67 819.517 801.748 815.207C802.825 810.897 803.366 806.07 804.302 800.953C805.602 793.85 806.594 789.654 807.264 783.745C808.046 776.847 807.668 771.614 808.071 762.147C808.441 753.485 808.209 736.965 808.075 728.058C807.93 718.345 807.401 708.207 807.268 693.55C807.188 684.695 806.062 680.418 805.654 669.55C805.275 659.45 804.447 647.068 803.773 634.186C803.019 619.761 801.219 614.509 800.678 609.262C800.042 603.085 798.798 597.833 797.183 592.579C795.392 586.749 795.295 578.995 794.625 573.212C793.987 567.71 792.615 561.255 791.933 555.988C790.538 545.214 790.726 528.954 789.782 524.378C789.186 521.489 789.112 518.986 787.772 517.376C783.385 512.103 772.728 511.181 768.539 510.104C764.538 509.074 761.412 507.146 757.376 505.935C754.243 504.995 748.272 504.482 727.275 495.378C712.366 488.913 687.899 480.946 674.881 476.289C658.336 470.371 652.467 468.145 648.278 466.386C642.873 464.116 635.243 461.689 629.855 459.929C624.71 458.249 619.908 456.571 615.993 454.55C610.699 451.815 603.491 449.033 599.851 446.482C595.842 443.674 586.59 439.105 579.273 435.719C574.597 433.556 569.592 430.211 564.745 428.451C560.835 427.032 555.08 425.626 549.418 424.149C538.99 421.429 534.886 419.702 526.964 416.623C517.344 412.884 511.754 411.905 507.573 410.828C502.379 409.489 498.565 409.21 478.94 408.54C462.552 407.98 430.848 408.402 413.987 408.536C396.057 408.677 393.898 409.21 391.485 409.343C380.23 409.964 364.583 410.549 360.007 410.957C354.556 411.443 350.33 412.438 341.742 413.108C320.802 414.741 310.506 410.824 303.117 409.351C295.788 407.89 289.796 407.87 264.448 407.862C252.806 407.858 246.502 410.017 239.347 411.49C234.315 412.526 230.602 413.245 224.552 414.985C216.055 417.428 210.149 422.656 206.783 425.207C199.199 430.954 188.099 443.609 183.244 452.225C180.309 457.433 179.204 463.787 177.32 472.125C176.588 475.362 175.185 480.139 174.366 494.595C173.546 509.05 173.28 533.022 174.741 552.962C176.202 572.902 179.398 588.083 181.311 596.57C183.224 605.057 183.756 606.389 185.762 612.668C191.331 630.103 196.129 644.324 198.68 649.025C203.06 657.098 210.924 662.096 214.29 664.251C217.944 666.591 226.211 666.681 234.318 665.075C243.554 663.245 248.31 661.838 253.431 660.232C255.316 659.158 257.204 658.343 259.218 657.54C260.166 657.003 260.965 656.204 263.403 655.381" stroke="#002BFF" stroke-width="22" stroke-linecap="round"/>
<path d="M213.362 724.793C208.809 727.199 200.222 734.705 194.814 739.176C192.914 740.747 190.77 741.735 189.426 743.345C187.181 746.035 187.534 749.265 188.066 750.879C188.306 751.606 189.665 751.428 190.613 751.295C192.388 751.046 195.581 747.958 199.745 742.99C202.984 739.127 204.742 731.04 206.356 719.232C208.989 699.968 204.758 693.348 203.01 687.819C201.598 683.35 200.448 670.555 201.384 661.854C201.882 657.229 204.742 653.783 209.709 644.388C212.904 638.347 214.169 634.138 213.769 632.923C211.556 626.194 194.055 643.533 183.53 643.948C180.536 644.067 178.397 642.475 175.984 640.199C172.595 637.003 169.261 626.672 165.899 613.77C163.952 606.298 164.127 593.071 164.26 576.53C164.334 567.373 166.807 560.98 168.829 556.122C171 550.903 174.329 539.495 175.693 532.316C176.926 525.826 178.655 521.157 180.395 515.507C182.026 510.21 183.224 505.806 185.096 500.329C192.289 479.294 191.836 474.869 191.707 472.585C191.648 471.555 190.246 471.1 189.164 470.958C182.765 470.123 175.435 471.891 174.357 472.298C173.493 472.625 175.153 469.752 175.693 469.074C177.861 466.356 170.875 476.443 167.368 481.16C164.125 485.523 162.529 489.631 160.77 493.138C158.958 496.748 157.138 500.931 155.257 505.907C152.14 514.155 151.213 520.302 149.607 525.011C146.6 533.828 145.297 543.442 144.894 553.192C143.995 574.909 145.023 590.263 145.426 593.076C146.015 597.18 145.83 600.755 146.233 607.43C147.876 634.605 145.031 640.014 144.623 647.419C144.373 651.961 142.609 656.705 142.202 668.251C142.086 671.53 141.528 680.854 141.395 694.434C141.284 705.676 140.188 715.883 139.647 721.944C138.931 729.968 137.234 737.401 135.345 746.283C133.54 754.776 132.65 763.503 131.98 776.215C131.481 785.67 131.842 803.794 131.976 813.657C132.153 826.803 136.395 833.173 138.562 838.315C140.263 842.35 146.871 847.976 152.137 852.173C156.618 855.743 161.415 858.759 165.592 860.519C169.641 862.224 174.329 864.151 178.639 865.228C182.699 866.243 197.09 866.846 208.495 864.704C215.044 863.473 224.597 859.873 235.791 855.293C240.743 853.267 245.614 851.253 250.069 848.162C256.415 843.759 262.305 838.888 266.748 835.115C271.621 830.976 277.883 824.925 282.895 820.582C287.425 816.658 292.96 809.848 297.024 806.187C301.089 802.525 306.697 794.238 310.47 790.586C314.924 786.274 318.271 783.197 323.646 779.02C327.726 775.85 331.185 774.044 337.23 770.811C342.67 767.902 347.327 765.424 350.959 763.81C355.786 761.664 362.63 761.663 370.322 760.981C371.815 760.848 372.881 760.581 383.551 760.444C394.221 760.307 414.463 760.307 425.824 760.44C439.053 760.595 444.165 761.114 450.606 761.38C457.091 761.648 463.803 762.728 469.715 762.861C473.516 762.947 484.99 763.801 501.124 764.338C515.457 764.815 527.848 765.682 537.501 766.489C548.268 767.389 556.105 769.185 566.246 771.848C575.148 774.186 591.303 779.839 603.802 784.714C624.928 792.955 633.863 798.508 635.606 799.311C640.207 801.43 643.798 806.829 648.92 811.809C653.02 815.797 655.373 821.89 657.943 826.341C660.204 830.255 662.378 835.353 665.603 841.128C669.703 848.47 674.211 851.237 679.986 854.457C685.988 857.805 690.353 856.887 700.014 856.895C704.136 856.898 710.499 854.481 719.76 852.201C735.501 848.326 743.074 842.375 753.421 832.717C757.847 828.587 760.573 825.425 765.278 820.728C769.966 816.048 770.532 811.978 772.687 806.603C774.845 801.221 776.989 795.303 778.208 789.654C779.749 782.51 780.767 770.573 781.437 758.64C781.863 751.044 781.574 736.916 781.441 728.712C781.307 720.508 781.041 718.643 780.904 706.496C780.767 694.349 780.767 671.975 780.9 659.518C781.033 647.06 781.299 645.195 781.437 635.845C781.574 626.494 781.574 609.714 781.441 600.404C781.249 587.043 780.234 581.691 779.826 576.437C779.458 571.689 778.62 566.356 778.079 559.633C777.329 550.311 774.584 544.564 772.837 540.782C771.196 537.232 767.869 534.588 763.966 531.904C760.1 529.245 756.569 526.791 750.124 523.966C739.203 519.179 724.301 515.749 715.426 512.803C706.672 509.897 700.087 508.76 683.037 502.993C674.291 500.035 666.721 496.395 661.333 494.502C649.884 490.48 633.354 484.013 628.378 482.262C620.099 479.348 613.725 477.557 605.795 475.672C591.552 472.287 580.94 469.227 570.952 465.587C557.327 460.621 545.927 457.104 539.728 454.687C535.11 452.886 530.85 450.647 526.673 448.23C522.502 445.816 515.789 443.125 509.732 440.695C504.546 438.616 494.853 438.266 482.306 436.926C479.99 436.679 478.662 436.652 470.385 435.719C462.108 434.787 446.926 432.923 437.773 431.962C428.62 431.002 425.957 431.002 395.419 430.203C364.882 429.404 306.552 427.806 275.304 427.249C244.056 426.692 241.659 427.225 239.492 427.499C227.988 428.956 214.459 430.727 210.819 432.608C205.356 435.43 200.189 440.671 197.231 443.234C192.4 447.419 188.357 457.33 186.061 465.543C184.025 472.823 181.9 483.658 178.805 498.178C177.225 505.591 175.734 518.978 173.575 531.299C171.416 543.619 169.018 554.54 167.784 561.364C166.549 568.188 166.549 570.585 164.951 593.794C163.352 617.003 160.156 660.95 158.643 684.655C156.995 710.469 157.67 715.883 157.803 721.924C157.919 727.18 158.477 732.033 158.744 738.728C159.159 749.175 160.624 757.328 161.431 762.417C163.545 775.744 162.513 791.381 163.183 801.587C163.547 807.132 165.467 813.544 168.018 818.94C168.975 820.965 170.31 822.447 171.516 823.924C174.294 827.323 182.917 826.49 196.166 822.895C205.508 820.359 218.737 812.108 229.064 805.606C246.71 794.497 255.574 786.151 260.275 783.063C267.474 778.336 276.527 768.975 285.3 761.542C293.32 754.746 300.756 749.314 307.234 745.387C310.79 743.231 317.165 739.079 327.089 733.712C338.269 727.665 346.786 725.068 351.476 723.994C363.61 721.217 370.718 720.758 379.051 720.088C392.475 719.009 399.516 721.29 417.393 725.427C433.132 729.068 462.439 735.689 478.464 739.12C494.489 742.55 496.354 742.55 504.772 744.281C513.19 746.013 528.106 749.475 536.988 751.392C548.219 753.816 555.265 754.915 563.191 756.929C568.811 758.357 579.439 761.897 593.285 765.928C604.673 769.244 615.775 773.995 628.169 779.25C638.243 783.521 647.552 790.945 654.004 796.32C659.466 800.87 661.297 805.489 663.859 810.998C666.327 816.302 668.561 821.083 670.986 826.067C674.448 833.18 680.393 833.738 692.068 836.705C701.417 839.08 711.29 836.725 723.021 830.954C730.967 827.045 731.532 814.674 732.202 806.494C733.02 796.514 732.872 786.708 733.679 780.795C734.886 771.958 735.568 761.146 736.238 751.348C736.54 746.933 736.375 740 737.574 712.061C738.772 684.123 741.169 635.381 742.271 609.339C743.451 581.445 742.299 577.647 741.492 574.157C740.204 568.584 739.071 562.595 737.057 556.529C736.269 554.155 733.163 552.885 711.298 546.747C691.12 541.082 652.144 531.553 626.784 524.478C601.425 517.404 590.771 513.409 584.483 510.951C576.537 507.845 572.82 506.338 563.732 503.4C544.863 497.301 531.383 492.077 527.097 491.14C515.556 488.619 510.947 486.16 502.746 483.073C499.233 481.751 495.603 481.051 480.526 477.177C467.387 473.801 442.81 468.775 423.261 465.232C403.713 461.689 389.862 460.09 380.064 459.134C364.961 457.66 357.852 457.37 349.704 457.1C343.158 456.883 331.701 457.362 313.949 458.165C296.196 458.969 272.491 460.3 259.48 461.12C237.633 462.495 224.145 463.012 220.517 464.086C218.086 464.805 214.734 470.502 209.899 480.696C207.405 485.955 206.13 491.956 204.241 502.299C202.352 512.642 200.222 527.291 199.124 537.901C196.611 562.188 197.219 567.647 196.549 578.107C195.205 599.098 197.752 605.033 199.366 611.906C199.772 613.635 199.641 615.526 200.706 624.61C201.771 633.694 203.902 649.941 205 676.689C206.097 703.437 206.097 740.193 205.964 759.661C205.803 783.174 204.483 791.203 203.813 797.814C203.636 799.561 203.676 801.696 204.209 802.261C207.832 806.103 214.952 795.037 223.644 787.41C229.796 782.012 240.061 774.189 249.936 767.01C259.811 759.83 269.134 753.704 278.863 745.088C288.593 736.472 298.448 725.552 304.058 719.527C312.52 710.437 317.997 707.327 327.387 701.948C334.98 697.599 342.476 696.011 352.9 694.272C360.907 692.936 374.511 691.201 387.502 690.64C400.492 690.079 412.478 690.878 422.648 691.956C432.817 693.033 440.808 694.365 455.578 699.579C470.348 704.793 491.656 713.849 517.682 722.909C543.708 731.969 573.805 740.758 590.508 745.419C607.212 750.08 609.609 750.347 612.975 751.283C616.34 752.219 620.602 753.817 629.589 757.97C638.576 762.123 652.16 768.781 661.289 773.81C680.944 784.637 683.089 791.752 686.721 797.41C692.77 806.832 699.215 813.286 703.138 814.521C703.887 814.757 704.349 813.06 705.022 808.915C705.696 804.771 706.495 797.579 705.309 761.38C704.123 725.181 700.926 660.192 699.812 624.315C698.699 588.439 699.764 583.644 700.712 578.511C702.639 568.082 703.283 561.497 702.75 559.883C702.511 559.156 701.152 559.334 692.08 560.932C683.008 562.53 665.962 565.726 654.917 567.373C643.871 569.019 639.343 569.019 629.819 567.554C620.295 566.089 605.912 563.16 580.258 555.791C554.604 548.422 518.114 536.702 498.117 530.532C478.121 524.361 475.724 524.095 470.494 522.892C447.516 517.609 442.874 515.217 433.479 513.203C422.823 510.919 417.595 508.76 403.362 505.003C397.534 503.464 393.365 503.11 386.416 501.77C372.151 499.02 358.151 498.8 350.092 498.667C344.151 498.569 332.105 497.993 310.918 498.925C299.294 499.436 286.002 501.722 278.343 502.682C265.324 504.315 258.851 505.257 254.541 506.326C249.317 507.623 245.937 514.91 241.893 521.109C239.186 525.258 236.518 534.507 233.293 556.327C231.184 570.599 231.134 591.732 230.989 604.169C230.806 619.807 231.925 625.76 233.39 638.851C234.561 649.316 237.785 667.391 239.294 681.516C240.804 695.64 240.804 705.229 240.271 712.699C238.895 731.997 235.162 737.409 233.951 740.916C233.72 741.586 233.54 739.628 235.004 719.491C236.469 699.353 239.399 660.999 240.775 637.645C242.152 614.291 241.885 607.099 240.15 596.07C238.415 585.041 235.218 570.391 233.439 558.051C231.659 545.71 231.393 536.121 231.788 527.852C232.915 504.289 237.026 496.427 238.511 490.878C238.778 489.882 239.448 489.131 240.122 490.051C240.796 490.971 241.595 493.634 242.406 520.842C243.217 548.05 244.016 599.722 244.96 625.808C245.905 651.894 246.97 650.829 248.318 648.416C249.666 646.002 251.264 642.273 253.818 634.093C256.373 625.913 259.835 613.395 262.152 603.616C264.468 593.838 265.534 587.179 268.879 574.161C272.225 561.142 277.818 541.965 280.833 532.751C283.847 523.538 284.114 524.87 281.321 558.716C278.528 592.563 272.669 658.884 269.916 692.517C267.164 726.149 267.697 725.084 270.901 696.568C274.105 668.053 279.965 612.119 283.916 581.041C287.867 549.963 289.731 545.435 291.624 544.701C293.517 543.966 295.381 547.163 298.472 555.201C301.564 563.24 305.825 576.025 308.82 583.81C312.83 594.235 315.858 596.994 317.468 597.668C318.958 598.292 324.696 586.881 333.425 566.88C341.181 549.108 344.107 534.37 345.184 529.491C346.889 521.771 344.123 548.002 342.38 553.777C341.586 556.406 340.37 558.22 338.622 553.321C332.869 537.189 330.943 521.964 329.195 517.263C328.447 515.248 328.247 513.893 327.444 514.139C326.641 514.385 325.309 516.25 317.831 540.915C310.353 565.581 296.769 612.991 289.772 639.146C282.774 665.301 282.774 668.763 283.573 669.082C284.372 669.401 285.97 666.471 291.188 653.908C296.406 641.345 305.196 619.238 312.121 603.455C319.046 587.672 323.84 578.882 327.908 572.49C334.596 561.979 342.46 555.064 349.046 551.017C351.309 549.626 352.703 552.828 352.985 561.654C353.268 570.48 352.735 585.662 350.463 602.539C348.191 619.416 344.196 637.528 340.806 650.32C337.416 663.113 334.752 670.038 333.78 671.475C332.193 673.819 336.294 658.666 340.051 645.93C342.142 638.842 343.808 630.264 348.631 616.151C353.453 602.039 361.177 582.595 368.353 568.051C375.528 553.506 381.92 544.451 386.945 538.321C391.969 532.19 395.432 529.261 398.014 527.485C400.597 525.709 402.195 525.177 403.551 526.5C407.22 530.082 407.07 540.173 404.673 558.64C403.021 571.366 397.482 590.424 393.281 604.299C389.08 618.173 385.617 626.163 382.235 632.943C376.085 645.273 370.5 652.403 367.275 654.828C366.1 655.713 365.116 654.59 362.973 643.258C360.83 631.926 357.368 610.086 354.918 600.033C352.469 589.98 351.137 592.377 349.652 597.075C348.167 601.772 346.569 608.697 337.755 632.241C328.941 655.785 312.96 695.737 302.73 719.781C292.5 743.825 288.504 750.75 286.047 754.717C283.589 758.684 282.79 759.483 290.502 742.582C298.214 725.681 314.461 691.056 327.093 666.56C339.724 642.064 348.247 628.746 358.498 615.626C368.748 602.507 380.468 589.988 395.96 576.747C411.453 563.507 430.364 549.923 443.835 541.593C463.941 529.161 475.643 527.324 480.885 526.783C482.921 526.573 483.73 527.307 483.876 529.047C484.266 533.716 481.075 542.328 476.652 554.132C474.295 560.422 470.897 567.002 463.791 578.689C456.684 590.376 445.764 606.889 436.942 617.794C428.12 628.698 421.728 633.492 416.304 636.495C407.113 641.582 399.298 641.66 394.592 640.595C392.573 640.137 392.284 637.398 392.808 634.436C394.033 627.524 399.774 619.376 409.278 607.454C415.336 599.855 424.908 589.94 432.773 583.261C440.638 576.582 446.764 573.652 453.25 571.344C466.168 566.746 479.38 565.791 491.858 566.19C504.652 566.6 515.717 570.077 523.909 573.967C527.691 575.763 530.237 578.124 532.008 580.819C535.539 586.192 535.402 594.799 533.671 604.993C531.595 617.217 521.181 626.284 513.267 633.536C505.609 640.554 495.361 641.66 485.837 641.127C480.82 640.847 475.514 639.529 467.709 637.116C449.606 631.518 436.425 625.534 431.587 621.115C429.071 618.818 428.879 614.299 429.932 609.577C430.985 604.855 433.915 599.528 439.952 594.52C445.99 589.512 455.045 584.984 466.236 582.518C477.427 580.053 490.478 579.786 504.659 580.448C518.84 581.11 533.756 582.708 550.229 585.396C566.702 588.083 584.281 591.812 598.265 595.731C612.248 599.649 622.103 603.645 629.977 608.5C637.85 613.354 643.443 618.948 646.991 624.359C650.538 629.771 651.87 634.832 650.958 641.035C650.046 647.237 646.849 654.429 641.873 661.063C636.898 667.698 630.239 673.557 620.549 679.106C610.86 684.655 598.341 689.716 584.834 692.989C571.327 696.262 557.211 697.593 532.359 694.95C507.508 692.307 472.35 685.648 449.577 680.487C426.804 675.325 417.482 671.862 410.416 668.614C403.349 665.365 398.821 662.435 396.755 657.863C394.689 653.291 395.222 647.165 398.293 641.079C401.364 634.993 406.957 629.134 413.834 624.117C420.711 619.101 428.701 615.106 439.476 611.316C450.251 607.527 463.569 604.064 481.083 601.748C498.598 599.432 519.906 598.366 538.607 598.217C557.307 598.068 572.756 598.867 588.305 600.477C603.854 602.087 619.036 604.484 631.252 607.051C643.467 609.617 652.257 612.281 658.649 614.985C665.042 617.689 668.771 620.352 670.958 623.589C673.145 626.825 673.678 630.554 672.754 634.339C671.83 638.125 669.433 641.854 664.602 646.971C659.771 652.088 652.58 658.48 643.948 664.037C635.316 669.594 625.461 674.122 613.059 676.988C600.658 679.853 586.009 680.918 559.152 675.874C532.295 670.829 493.674 659.643 472.047 651.882C450.421 644.122 446.958 640.127 446.772 634.473C446.587 628.819 449.783 621.627 455.292 615.392C460.8 609.157 468.524 604.097 478.763 599.625C489.001 595.154 501.519 591.425 515.426 588.838C529.333 586.251 544.248 584.92 561.121 584.367C577.994 583.814 596.372 584.08 617.426 586.481C638.479 588.883 661.652 593.41 677.185 597.741C692.718 602.071 699.909 606.066 704.546 610.122C709.183 614.178 711.048 618.173 711.609 622.761C712.17 627.35 711.37 632.41 708.162 638.347C704.954 644.283 699.361 650.942 692.218 657.435C685.075 663.929 676.551 670.055 663.504 675.341C650.457 680.628 633.144 684.889 616.502 686.685C599.859 688.481 584.411 687.682 571.525 686.205C558.639 684.728 548.784 682.597 541.177 680.567C533.57 678.537 528.509 676.673 525.237 674.114C521.964 671.556 520.632 668.36 520.745 662.718C520.858 657.076 522.456 649.086 526.209 641.507C529.962 633.928 535.822 627.003 544.034 621.038C552.247 615.074 562.634 610.279 579.172 607.676C595.71 605.073 618.084 604.807 634.004 605.202C649.924 605.598 658.714 606.663 666.039 608.144C679.118 610.789 686.317 615.275 688.739 619.698C691.53 624.798 686.632 634.606 679.396 646.547C675.535 652.92 669.497 658.755 662.221 664.707C654.945 670.66 646.155 676.253 636.034 680.067C625.913 683.88 614.726 685.745 602.438 685.906C590.149 686.068 577.098 684.47 558.256 680.45C539.414 676.431 515.176 670.038 500.958 665.68C486.741 661.322 483.278 659.191 481.628 656.229C479.977 653.266 480.244 649.538 482.911 645.353C489.171 635.532 502.512 629.311 516.596 625.009C523.869 622.788 532.012 622.838 540.523 622.83C549.035 622.822 557.824 623.355 567.413 624.828C577.001 626.301 587.122 628.698 596.199 631.797C613.36 637.658 623.62 645.663 628.189 652.504C630.472 655.923 631.159 660.143 631.042 664.732C630.925 669.32 629.593 674.381 625.844 679.118C622.095 683.856 615.969 688.118 609.484 690.58C602.999 693.041 596.34 693.574 585.585 691.851C574.83 690.128 560.181 686.132 552.102 683.142C544.022 680.152 542.957 678.287 542.941 675.862C542.925 673.436 543.99 670.507 548.401 667.399C552.812 664.292 560.536 661.096 571.573 659.449C582.611 657.802 596.727 657.802 610.791 659.267C624.855 660.732 638.439 663.662 650.364 667.569C662.29 671.475 672.144 676.269 678.953 680.737C685.761 685.204 689.223 689.199 691.406 693.388C693.59 697.577 694.389 701.839 693.735 706.831C693.081 711.823 690.95 717.416 686.39 722.961C681.83 728.506 674.905 733.833 667.875 737.243C660.845 740.653 653.92 741.985 646.091 742.272C638.262 742.558 629.738 741.759 619.754 739.749C598.382 735.447 585.46 729.919 582.772 726.702C579.836 723.189 581.134 716.754 583.273 710.447C585.648 703.441 595.081 700.055 605.674 698.437C611.414 697.56 618.132 698.949 625.691 701.758C633.249 704.567 641.506 709.361 647.624 713.695C658.009 721.053 662.378 728.264 663.726 732.965C664.293 734.943 663.476 736.335 662.003 737.021C660.53 737.707 658.133 737.707 645.179 733.712C632.224 729.717 608.786 721.726 596.178 717.344C583.571 712.961 582.506 712.428 583.155 711.355C585.254 707.888 594.798 707.037 606.477 707.436C612.041 707.627 616.824 708.635 623.955 710.645C640.565 715.326 652.144 720.209 653.242 720.891C642.225 716.456 638.722 715.382 637.111 714.442C636.3 714.034 635.501 713.768 634.678 712.687" stroke="#002BFF" stroke-width="50" stroke-linecap="round"/>
<path d="M247 608.708H390.333" stroke="white" stroke-width="20" stroke-linecap="round" stroke-linejoin="round"/>
<path d="M318.667 537.125V680.292" stroke="white" stroke-width="20" stroke-linecap="round" stroke-linejoin="round"/>
<path d="M569.5 644.5H569.856" stroke="white" stroke-width="20" stroke-linecap="round" stroke-linejoin="round"/>
<path d="M677 572.917H677.356" stroke="white" stroke-width="20" stroke-linecap="round" stroke-linejoin="round"/>
<path d="M795.787 527.891C798.69 552.014 820.333 732.369 820.333 787.667C820.333 816.144 809.008 843.456 788.847 863.592C768.687 883.729 741.344 895.042 712.833 895.042C677 895.042 659.083 877.146 641.167 859.25L590.498 808.641C577.061 795.215 558.836 787.671 539.83 787.667H384.17C365.164 787.671 346.939 795.215 333.502 808.641L282.833 859.25C264.917 877.146 247 895.042 211.167 895.042C182.656 895.042 155.313 883.729 135.153 863.592C114.992 843.456 103.667 816.144 103.667 787.667C103.667 732.404 125.31 552.014 128.212 527.891C128.463 526.065 128.607 524.312 128.822 522.45C132.457 487.213 149.042 454.573 175.37 430.84C201.699 407.107 235.902 393.967 271.367 393.958H494.89" stroke="#002BFF" stroke-width="20" stroke-linecap="round" stroke-linejoin="round"/>
<g clip-path="url(#clip0_5_2)">
<path d="M756.993 168C758.544 166.689 760.418 165.819 762.419 165.479C764.421 165.14 766.477 165.344 768.373 166.07C770.269 166.796 771.935 168.017 773.198 169.607C774.461 171.197 775.274 173.096 775.552 175.107L792.625 317.783C793.063 321.103 794.232 324.285 796.046 327.1C797.86 329.916 800.275 332.294 803.117 334.065C805.96 335.837 809.159 336.957 812.485 337.345C815.812 337.733 819.183 337.38 822.357 336.311L942.696 293.388C944.977 292.639 947.437 292.634 949.722 293.372C952.006 294.111 953.997 295.555 955.409 297.497C956.82 299.439 957.579 301.779 957.576 304.18C957.573 306.581 956.808 308.919 955.391 310.858L812.221 504.933C809.294 508.906 805.152 511.816 800.423 513.222C795.693 514.629 790.634 514.455 786.012 512.727L523.712 412.275C519.113 410.477 515.226 407.227 512.642 403.019C510.057 398.812 508.916 393.875 509.392 388.96L532.495 148.927C532.736 146.538 533.728 144.288 535.329 142.499C536.931 140.71 539.059 139.475 541.406 138.973C543.754 138.47 546.201 138.725 548.394 139.702C550.587 140.678 552.414 142.325 553.612 144.406L614.475 256.724C616.123 259.639 618.396 262.154 621.131 264.087C623.865 266.02 626.994 267.324 630.293 267.904C633.591 268.484 636.977 268.327 640.208 267.444C643.438 266.561 646.433 264.973 648.978 262.795L756.993 168Z" fill="#FFCC00" stroke="#FFCC00" stroke-width="20" stroke-linecap="round" stroke-linejoin="round"/>
</g>
<defs>
<clipPath id="clip0_5_2">
<rect width="544.468" height="544.468" fill="white" transform="translate(538.542 5) rotate(20.9551)"/>
</clipPath>
</defs>
</svg>
