<svg width="1080" height="1080" viewBox="0 0 1080 1080" fill="none" xmlns="http://www.w3.org/2000/svg">
<path d="M247 608.708H390.333" stroke="#002BFF" stroke-width="20" stroke-linecap="round" stroke-linejoin="round"/>
<path d="M318.667 537.125V680.292" stroke="#002BFF" stroke-width="20" stroke-linecap="round" stroke-linejoin="round"/>
<path d="M569.5 644.5H569.856" stroke="#002BFF" stroke-width="20" stroke-linecap="round" stroke-linejoin="round"/>
<path d="M677 572.917H677.356" stroke="#002BFF" stroke-width="20" stroke-linecap="round" stroke-linejoin="round"/>
<path d="M795.787 527.891C798.69 552.014 820.333 732.369 820.333 787.667C820.333 816.144 809.007 843.456 788.847 863.592C768.687 883.729 741.344 895.042 712.833 895.042C677 895.042 659.083 877.146 641.167 859.25L590.498 808.641C577.061 795.215 558.836 787.671 539.83 787.667H384.17C365.164 787.671 346.939 795.215 333.502 808.641L282.833 859.25C264.917 877.146 247 895.042 211.167 895.042C182.656 895.042 155.313 883.729 135.153 863.592C114.993 843.456 103.667 816.144 103.667 787.667C103.667 732.404 125.31 552.014 128.212 527.891C128.463 526.065 128.607 524.312 128.822 522.45C132.457 487.213 149.042 454.573 175.37 430.84C201.699 407.107 235.902 393.967 271.367 393.958H494.89" stroke="#002BFF" stroke-width="20" stroke-linecap="round" stroke-linejoin="round"/>
<g clip-path="url(#clip0_1_2)">
<path d="M756.993 168C758.544 166.689 760.418 165.819 762.419 165.479C764.421 165.14 766.477 165.344 768.373 166.07C770.269 166.796 771.935 168.017 773.198 169.607C774.461 171.197 775.274 173.096 775.552 175.107L792.625 317.783C793.063 321.103 794.232 324.285 796.046 327.1C797.86 329.916 800.275 332.294 803.117 334.065C805.96 335.837 809.159 336.957 812.485 337.345C815.812 337.733 819.183 337.38 822.357 336.311L942.696 293.388C944.977 292.639 947.437 292.634 949.722 293.372C952.006 294.111 953.997 295.555 955.409 297.497C956.82 299.439 957.579 301.779 957.576 304.18C957.573 306.581 956.808 308.919 955.391 310.858L812.221 504.933C809.294 508.906 805.152 511.816 800.423 513.222C795.693 514.629 790.634 514.455 786.012 512.727L523.712 412.275C519.113 410.477 515.226 407.227 512.642 403.019C510.057 398.812 508.916 393.875 509.392 388.96L532.495 148.927C532.736 146.538 533.728 144.288 535.329 142.499C536.931 140.71 539.059 139.475 541.406 138.973C543.754 138.47 546.201 138.725 548.394 139.702C550.587 140.678 552.414 142.325 553.612 144.406L614.475 256.724C616.123 259.639 618.396 262.154 621.131 264.087C623.865 266.02 626.994 267.324 630.293 267.904C633.591 268.484 636.977 268.327 640.208 267.444C643.438 266.561 646.433 264.973 648.978 262.795L756.993 168Z" stroke="#FFCC00" stroke-width="20" stroke-linecap="round" stroke-linejoin="round"/>
</g>
<defs>
<clipPath id="clip0_1_2">
<rect width="544.468" height="544.468" fill="white" transform="translate(538.542 5) rotate(20.9551)"/>
</clipPath>
</defs>
</svg>
